<?xml version="1.0" encoding="UTF-8"?><svg id="a" xmlns="http://www.w3.org/2000/svg" viewBox="0 0 841.89 595.28"><defs><style>.b{fill:#fff;}.c{fill:#fdb913;}</style></defs><rect class="c" x="170.84" y="235.28" width="499.46" height="19.98"/><g><path class="b" d="M193,294.57v15.48h48.04v18.51h-48.04v28.75h-22.17v-81.49h79.66v18.74h-57.49Z"/><path class="b" d="M335.37,338.22v19.09h-73.36v-81.49h22.17v62.39h51.19Z"/><path class="b" d="M339.27,316.57c0-27.59,19.45-43.42,49.56-43.42s49.67,15.83,49.67,43.42-19.56,43.42-49.67,43.42-49.56-15.83-49.56-43.42Zm76.62,0c0-15.37-10.32-24.1-27.06-24.1s-27.06,8.73-27.06,24.1,10.32,24.1,27.06,24.1,27.06-8.73,27.06-24.1Z"/><path class="b" d="M575.86,275.83l-27.71,81.49h-22.06l-17.71-56.69-17.82,56.69h-21.84l-27.82-81.49h22.71l16.63,55.99,18.15-55.99h20.43l18.15,55.99,16.63-55.99h22.26Z"/><path class="b" d="M636.5,315.64l34.56,41.67h-26.63l-21.41-25.96-21.41,25.96h-25.21l34.45-41.33-33.69-40.16h26.63l20.65,24.91,20.54-24.91h25.32l-33.8,39.82Z"/></g></svg>