<?xml version="1.0" standalone="no"?>
<!DOCTYPE svg PUBLIC "-//W3C//DTD SVG 1.1//EN" "http://www.w3.org/Graphics/SVG/1.1/DTD/svg11.dtd">
<svg xmlns="http://www.w3.org/2000/svg" xmlns:xlink="http://www.w3.org/1999/xlink" version="1.1" id="Layer_1" x="0px" y="0px" viewBox="0 0 1920 1080" style="enable-background:new 0 0 1920 1080;" xml:space="preserve" width="1920" height="1080">
<style type="text/css">
	.st0{fill:#231F20;}
	.st1{fill:#FCB813;}
	.st2{fill:#FFFFFF;}
</style>
<g>
	<path class="st0" d="M529,507.6v22.8h70.6v27.2H529v42.3h-32.6V480.1h117.1v27.6H529z"/>
	<path class="st0" d="M738.4,571.8v28.1H630.5V480.1h32.6v91.7H738.4z"/>
	<path class="st0" d="M744.1,540c0-40.6,28.6-63.8,72.9-63.8c44.3,0,73,23.3,73,63.8s-28.8,63.8-73,63.8   C772.7,603.8,744.1,580.6,744.1,540z M856.8,540c0-22.6-15.2-35.4-39.8-35.4c-24.4,0-39.8,12.8-39.8,35.4   c0,22.6,15.2,35.4,39.8,35.4C841.6,575.4,856.8,562.6,856.8,540z"/>
	<path class="st0" d="M1092,480.1l-40.7,119.8h-32.4l-26-83.4l-26.2,83.4h-32.1l-40.9-119.8h33.4l24.4,82.3l26.7-82.3h30l26.7,82.3   l24.4-82.3H1092z"/>
	<rect x="1099.7" y="575.7" class="st1" width="92.2" height="24.2"/>
	<g>
		<path class="st0" d="M1159.9,514.8l32,36.7h-29.5l-17.4-20.4l-17.4,20.4h-27.8l31.9-36.3l-31.1-35.1h29.6l16.5,19.3l16.5-19.3    h27.9L1159.9,514.8z"/>
	</g>
	<g>
		<path class="st0" d="M1214,594.4c0-3.9,2.9-6.8,7.2-6.8c4.3,0,7.2,2.9,7.2,6.8s-2.9,6.8-7.2,6.8    C1216.9,601.3,1214,598.4,1214,594.4z"/>
		<path class="st0" d="M1359.7,564.5H1275l-19.7,35.4h-9.9l67.1-119.8h9.9l67.1,119.8h-9.9L1359.7,564.5z M1355.2,556.3l-38-68    l-37.8,68H1355.2z"/>
		<path class="st0" d="M1414.6,599.9V480.1h8.9v119.8H1414.6z"/>
	</g>
</g>
</svg>