
<svg width="1353" height="984" viewBox="0 0 902 656" fill="none" xmlns="http://www.w3.org/2000/svg">
  <path d="M186.722 280.07V292.465H225.103V307.251H186.722V330.247H169V265.12H232.659V280.124H186.722V280.07Z" fill="white"/>
  <path d="M300.559 314.971V330.247H241.901V265.12H259.623V314.971H300.559Z" fill="white"/>
  <path d="M303.657 297.684C303.657 275.612 319.205 263 343.288 263C367.371 263 382.973 275.667 382.973 297.684C382.973 319.701 367.317 332.367 343.288 332.367C319.205 332.367 303.657 319.755 303.657 297.684ZM364.925 297.684C364.925 285.398 356.661 278.439 343.288 278.439C330.024 278.439 321.652 285.398 321.652 297.684C321.652 309.97 329.915 316.928 343.288 316.928C356.661 316.928 364.925 309.97 364.925 297.684Z" fill="white"/>
  <path d="M492.786 265.12L470.661 330.247H453.047L438.913 284.908L424.669 330.247H407.219L384.984 265.12H403.142L416.406 309.861L430.921 265.12H447.23L461.745 309.861L475.01 265.12H492.786Z" fill="white"/>
  <path d="M547.095 317.091H496.972V330.247H547.095V317.091Z" fill="#FCB813"/>
  <path d="M529.699 283.984L547.095 303.935H531.058L521.599 292.845L512.14 303.935H497.027L514.369 284.202L497.462 265.12H513.553L522.523 275.612L531.493 265.12H546.66L529.699 283.984Z" fill="white"/>
  <path d="M559.109 327.257C559.109 325.137 560.686 323.56 563.023 323.56C565.361 323.56 566.938 325.137 566.938 327.257C566.938 329.377 565.361 330.954 563.023 330.954C560.686 331.008 559.109 329.432 559.109 327.257Z" fill="white"/>
<path d="M638.316 311.003H592.271L581.561 330.247H576.179L612.657 265.12H618.039L654.517 330.247H649.135L638.316 311.003ZM635.87 306.545L615.212 269.578L594.663 306.545H635.87Z" fill="white"/>
<path d="M668.162 330.247V265.12H673V330.247H668.162Z" fill="white"/>


</svg>
