<?xml version="1.0" encoding="utf-8"?>
<!-- Generator: Adobe Illustrator 25.3.1, SVG Export Plug-In . SVG Version: 6.00 Build 0)  -->
<svg version="1.1" id="Layer_1" xmlns="http://www.w3.org/2000/svg" xmlns:xlink="http://www.w3.org/1999/xlink" x="0px" y="0px"
	 viewBox="0 0 841.89 595.28" style="enable-background:new 0 0 841.89 595.28;" xml:space="preserve">
<style type="text/css">
	.st0{fill:#FDB913;}
	.st1{fill:#FFFFFF;}
	.st2{fill:#010101;}
	.st3{fill:#FCB918;}
</style>
<g>
	<rect x="170.84" y="235.28" class="st0" width="499.46" height="19.98"/>
	<g>
		<path class="st2" d="M193,294.57v15.48h48.04v18.51H193v28.75h-22.17v-81.49h79.66v18.74H193z"/>
		<path class="st2" d="M335.37,338.22v19.09h-73.36v-81.49h22.17v62.39H335.37z"/>
		<path class="st2" d="M339.27,316.57c0-27.59,19.45-43.42,49.56-43.42c30.1,0,49.67,15.83,49.67,43.42
			c0,27.59-19.56,43.42-49.67,43.42C358.73,359.99,339.27,344.16,339.27,316.57z M415.89,316.57c0-15.37-10.32-24.1-27.06-24.1
			c-16.63,0-27.06,8.73-27.06,24.1c0,15.37,10.32,24.1,27.06,24.1C405.57,340.67,415.89,331.94,415.89,316.57z"/>
		<path class="st2" d="M575.86,275.83l-27.71,81.49h-22.06l-17.71-56.69l-17.82,56.69h-21.84l-27.82-81.49h22.71l16.63,55.99
			l18.15-55.99h20.43l18.15,55.99l16.63-55.99H575.86z"/>
		<path class="st2" d="M636.5,315.64l34.56,41.67h-26.63l-21.41-25.96l-21.41,25.96H576.4l34.45-41.33l-33.69-40.16h26.63
			l20.65,24.91l20.54-24.91h25.32L636.5,315.64z"/>
	</g>
	<g>
		<g>
			<path class="st3" d="M665.33,244.87c2.88,0,2.89-4.48,0-4.48C662.44,240.39,662.44,244.87,665.33,244.87L665.33,244.87z"/>
		</g>
	</g>
</g>
</svg>
