<svg width="116" height="17" viewBox="0 0 116 17" fill="none" xmlns="http://www.w3.org/2000/svg">
<path d="M4.07908 4.76418V7.61704H12.9129V11.0204H4.07908V16.3132H0V1.32324H14.6521V4.7767H4.07908V4.76418Z" fill="#231F20"/>
<path d="M30.2798 12.7972V16.3132H16.7788V1.32324H20.8579V12.7972H30.2798Z" fill="#231F20"/>
<path d="M30.9927 8.81794C30.9927 3.73786 34.5713 0.834961 40.1143 0.834961C45.6573 0.834961 49.2484 3.75037 49.2484 8.81794C49.2484 13.8855 45.6448 16.8009 40.1143 16.8009C34.5713 16.8009 30.9927 13.898 30.9927 8.81794ZM45.0943 8.81794C45.0943 5.99011 43.1924 4.38851 40.1143 4.38851C37.0612 4.38851 35.1343 5.99011 35.1343 8.81794C35.1343 11.6458 37.0362 13.2474 40.1143 13.2474C43.1924 13.2474 45.0943 11.6458 45.0943 8.81794Z" fill="#231F20"/>
<path d="M74.523 1.32324L69.4304 16.3132H65.3764L62.1231 5.87779L58.8448 16.3132H54.8283L49.7107 1.32324H53.8899L56.9429 11.621L60.2838 1.32324H64.0375L67.3784 11.621L70.4314 1.32324H74.523Z" fill="#231F20"/>
<path d="M87.0221 13.2847H75.4856V16.3127H87.0221V13.2847Z" fill="#FCB813"/>
<path d="M83.0183 5.66508L87.0223 10.2572H83.3311L81.1539 7.70462L78.9768 10.2572H75.4983L79.4898 5.71513L75.5984 1.32324H79.3021L81.3666 3.73815L83.4312 1.32324H86.9222L83.0183 5.66508Z" fill="#231F20"/>
<path d="M89.7871 15.6243C89.7871 15.1363 90.15 14.7734 90.688 14.7734C91.226 14.7734 91.5889 15.1363 91.5889 15.6243C91.5889 16.1123 91.226 16.4751 90.688 16.4751C90.15 16.4877 89.7871 16.1248 89.7871 15.6243Z" fill="#231F20"/>
<path d="M108.018 11.8838H97.4198L94.9548 16.3132H93.7161L102.112 1.32324H103.351L111.747 16.3132H110.508L108.018 11.8838ZM107.455 10.8578L102.7 2.34927L97.9703 10.8578H107.455Z" fill="#231F20"/>
<path d="M114.886 16.3132V1.32324H116V16.3132H114.886Z" fill="#231F20"/>
</svg>
