<svg width="200" height="200" viewBox="0 0 200 200" fill="none" xmlns="http://www.w3.org/2000/svg">
<g clip-path="url(#clip0_1_16)">
<path d="M151.111 175.816H48.8891C35.2001 175.816 24.1841 164.719 24.1841 151.111V48.889C24.1841 35.2 35.2811 24.184 48.8891 24.184H151.111C164.8 24.184 175.816 35.281 175.816 48.889V151.111C175.816 164.8 164.8 175.816 151.111 175.816Z" fill="#FCB813"/>
<path d="M137.11 128.751H62.9141V148.272H137.11V128.751Z" fill="white"/>
<path d="M111.352 79.6955L137.11 109.261H113.377L99.3641 92.8175L85.3511 109.261H62.9141L88.5911 80.0195L63.5621 51.8315H87.3761L100.66 67.3025L113.944 51.8315H136.462L111.352 79.6955Z" fill="#231F20"/>
</g>
<defs>
<clipPath id="clip0_1_16">
<rect width="200" height="200" fill="white"/>
</clipPath>
</defs>
</svg>
