<?xml version="1.0" encoding="utf-8"?>
<!-- Generator: Adobe Illustrator 25.3.1, SVG Export Plug-In . SVG Version: 6.00 Build 0)  -->
<svg version="1.1" id="Layer_1" xmlns="http://www.w3.org/2000/svg" xmlns:xlink="http://www.w3.org/1999/xlink" x="0px" y="0px"
	 viewBox="0 0 841.89 595.28" style="enable-background:new 0 0 841.89 595.28;" xml:space="preserve">
<style type="text/css">
	.st0{fill:#FDB913;}
	.st1{fill:#FFFFFF;}
</style>
<rect width="841.89" height="595.28"/>
<g>
	<rect x="168.78" y="248.46" class="st0" width="504.35" height="15.75"/>
	<g>
		<path class="st1" d="M186.25,295.22v12.21h37.88v14.6h-37.88v22.68h-17.48v-64.26h62.82v14.78H186.25z"/>
		<path class="st1" d="M298.52,329.64v15.06h-57.85v-64.26h17.48v49.21H298.52z"/>
		<path class="st1" d="M301.6,312.57c0-21.76,15.34-34.24,39.08-34.24c23.74,0,39.17,12.49,39.17,34.24s-15.43,34.24-39.17,34.24
			C316.95,346.81,301.6,334.33,301.6,312.57z M362.02,312.57c0-12.12-8.14-19-21.34-19c-13.11,0-21.34,6.89-21.34,19
			c0,12.12,8.14,19,21.34,19C353.88,331.57,362.02,324.69,362.02,312.57z"/>
		<path class="st1" d="M488.18,280.44l-21.85,64.26h-17.4l-13.97-44.71L420.9,344.7h-17.23l-21.94-64.26h17.91l13.11,44.16
			l14.31-44.16h16.11l14.31,44.16l13.11-44.16H488.18z"/>
		<path class="st1" d="M536,311.83l27.25,32.87h-21l-16.88-20.47l-16.88,20.47h-19.88l27.17-32.59l-26.57-31.67h21l16.28,19.65
			l16.2-19.65h19.97L536,311.83z"/>
		<path class="st1" d="M569.51,341.76c0-2.11,1.46-3.67,3.6-3.67c2.14,0,3.6,1.56,3.6,3.67c0,2.11-1.46,3.67-3.6,3.67
			C570.97,345.43,569.51,343.87,569.51,341.76z"/>
		<path class="st1" d="M642.44,325.7h-42.42l-9.86,19h-4.97l33.59-64.26h4.97l33.59,64.26h-4.97L642.44,325.7z M640.21,321.29
			l-19.03-36.45l-18.94,36.45H640.21z"/>
		<path class="st1" d="M673.12,344.7h-4.37v-64.26h4.37V344.7z"/>
	</g>
</g>
</svg>
