<svg width="116" height="17" viewBox="0 0 116 17" fill="none" xmlns="http://www.w3.org/2000/svg">
  <style>
    .light-mode { display: block; }
    .dark-mode { display: none; }
    
    .dark .light-mode { display: none; }
    .dark .dark-mode { display: block; }
  </style>
  <g class="light-mode">
    <!-- Insert all your light mode paths here -->
    <path d="M4.07908 4.76418V7.61704H12.9129V11.0204H4.07908V16.3132H0V1.32324H14.6521V4.7767H4.07908V4.76418Z" fill="#231F20"/>
<path d="M30.2798 12.7972V16.3132H16.7788V1.32324H20.8579V12.7972H30.2798Z" fill="#231F20"/>
<path d="M30.9927 8.81794C30.9927 3.73786 34.5713 0.834961 40.1143 0.834961C45.6573 0.834961 49.2484 3.75037 49.2484 8.81794C49.2484 13.8855 45.6448 16.8009 40.1143 16.8009C34.5713 16.8009 30.9927 13.898 30.9927 8.81794ZM45.0943 8.81794C45.0943 5.99011 43.1924 4.38851 40.1143 4.38851C37.0612 4.38851 35.1343 5.99011 35.1343 8.81794C35.1343 11.6458 37.0362 13.2474 40.1143 13.2474C43.1924 13.2474 45.0943 11.6458 45.0943 8.81794Z" fill="#231F20"/>
<path d="M74.523 1.32324L69.4304 16.3132H65.3764L62.1231 5.87779L58.8448 16.3132H54.8283L49.7107 1.32324H53.8899L56.9429 11.621L60.2838 1.32324H64.0375L67.3784 11.621L70.4314 1.32324H74.523Z" fill="#231F20"/>
<path d="M87.0221 13.2847H75.4856V16.3127H87.0221V13.2847Z" fill="#FCB813"/>
<path d="M83.0183 5.66508L87.0223 10.2572H83.3311L81.1539 7.70462L78.9768 10.2572H75.4983L79.4898 5.71513L75.5984 1.32324H79.3021L81.3666 3.73815L83.4312 1.32324H86.9222L83.0183 5.66508Z" fill="#231F20"/>
<path d="M89.7871 15.6243C89.7871 15.1363 90.15 14.7734 90.688 14.7734C91.226 14.7734 91.5889 15.1363 91.5889 15.6243C91.5889 16.1123 91.226 16.4751 90.688 16.4751C90.15 16.4877 89.7871 16.1248 89.7871 15.6243Z" fill="#231F20"/>
<path d="M108.018 11.8838H97.4198L94.9548 16.3132H93.7161L102.112 1.32324H103.351L111.747 16.3132H110.508L108.018 11.8838ZM107.455 10.8578L102.7 2.34927L97.9703 10.8578H107.455Z" fill="#231F20"/>
<path d="M114.886 16.3132V1.32324H116V16.3132H114.886Z" fill="#231F20"/>
    <!-- ... other paths for light mode -->
  </g>
  <g class="dark-mode">
    <!-- Insert all your dark mode paths here -->
    <path d="M32.9984 31.6016V54.4016H103.598V81.6015H32.9984V123.902H0.398438V4.10156H117.498V31.7016H32.9984V31.6016Z" fill="white"/>
<path d="M242.4 95.8015V123.902H134.5V4.10156H167.1V95.8015H242.4Z" fill="white"/>
<path d="M248.102 64.0031C248.102 23.4031 276.702 0.203125 321.002 0.203125C365.302 0.203125 394.002 23.5031 394.002 64.0031C394.002 104.503 365.202 127.803 321.002 127.803C276.702 127.803 248.102 104.603 248.102 64.0031ZM360.802 64.0031C360.802 41.4031 345.602 28.6031 321.002 28.6031C296.602 28.6031 281.202 41.4031 281.202 64.0031C281.202 86.6031 296.402 99.4031 321.002 99.4031C345.602 99.4031 360.802 86.6031 360.802 64.0031Z" fill="white"/>
<path d="M595.995 4.10156L555.295 123.902H522.895L496.895 40.5016L470.695 123.902H438.595L397.695 4.10156H431.095L455.495 86.4016L482.195 4.10156H512.195L538.895 86.4016L563.295 4.10156H595.995Z" fill="white"/>
<path d="M695.895 99.7031H603.695V123.903H695.895V99.7031Z" fill="#FCB813"/>
<path d="M663.897 38.8015L695.897 75.5016H666.397L648.997 55.1015L631.597 75.5016H603.797L635.697 39.2016L604.597 4.10156H634.197L650.697 23.4016L667.197 4.10156H695.097L663.897 38.8015Z" fill="white"/>
<path d="M718 118.402C718 114.502 720.9 111.602 725.2 111.602C729.5 111.602 732.4 114.502 732.4 118.402C732.4 122.302 729.5 125.202 725.2 125.202C720.9 125.302 718 122.402 718 118.402Z" fill="white"/>
<path d="M863.698 88.5016H778.998L759.298 123.902H749.398L816.498 4.10156H826.398L893.498 123.902H883.598L863.698 88.5016ZM859.198 80.3015L821.198 12.3015L783.398 80.3015H859.198Z" fill="white"/>
<path d="M918.602 123.902V4.10156H927.502V123.902H918.602Z" fill="white"/>
    <!-- ... other paths for dark mode -->
  </g>
</svg>
